<?xml version="1.0" standalone="no"?>
<!-- <!DOCTYPE svg PUBLIC "-//W3C//DTD SVG 20010904//EN"
 "http://www.w3.org/TR/2001/REC-SVG-20010904/DTD/svg10.dtd"> -->
<svg version="1.0" xmlns="http://www.w3.org/2000/svg"
 width="512.000000pt" height="512.000000pt" viewBox="0 0 512.000000 512.000000"
 preserveAspectRatio="xMidYMid meet">

<g transform="translate(0.000000,512.000000) scale(0.100000,-0.100000)"
fill="#FFF" stroke="none">
<path d="M2165 4998 c-136 -15 -323 -58 -477 -108 -1032 -339 -1724 -1331
-1685 -2410 10 -258 45 -458 123 -695 121 -366 336 -709 611 -978 98 -95 120
-103 167 -66 18 14 26 30 26 51 0 26 -17 49 -103 137 -199 205 -316 369 -436
611 -113 227 -177 432 -218 690 -24 160 -24 500 0 660 110 700 502 1286 1107
1650 186 112 388 197 596 249 227 58 296 65 579 66 229 0 275 -3 390 -24 254
-45 508 -134 719 -252 133 -74 166 -76 191 -16 21 51 4 78 -78 125 -284 162
-588 263 -920 307 -130 17 -456 19 -592 3z"/>
<path d="M2170 4664 c-801 -107 -1482 -676 -1736 -1452 -81 -245 -117 -552
-96 -806 85 -1027 860 -1832 1882 -1956 200 -24 509 -6 710 41 205 47 462 153
635 259 303 186 585 483 751 789 44 82 119 101 164 43 41 -52 23 -103 -109
-299 -356 -532 -893 -882 -1521 -993 -156 -28 -485 -38 -641 -21 -321 37 -629
136 -890 288 -187 108 -177 104 -213 89 -35 -14 -52 -50 -42 -89 14 -57 370
-244 620 -326 271 -88 478 -121 773 -121 392 0 739 80 1083 251 351 174 646
418 874 723 83 111 196 291 222 352 18 43 18 135 0 178 -37 89 -129 150 -226
148 -112 -1 -157 -36 -248 -189 -318 -538 -830 -881 -1444 -968 -134 -19 -377
-19 -522 0 -653 86 -1225 500 -1517 1100 -263 541 -263 1166 1 1712 101 211
214 369 384 538 315 313 691 500 1131 561 179 24 475 15 645 -21 566 -118
1027 -449 1322 -948 91 -153 136 -188 248 -189 70 -1 134 27 179 77 46 52 61
93 61 164 0 49 -6 71 -36 128 -55 105 -193 308 -283 414 -96 115 -284 297
-326 314 -50 22 -104 -12 -105 -64 0 -19 35 -59 144 -165 185 -182 312 -345
419 -537 53 -96 48 -147 -19 -175 -52 -22 -91 -1 -128 67 -279 514 -792 906
-1367 1044 -229 54 -544 70 -779 39z"/>
<path d="M1200 3701 c-156 -33 -235 -197 -164 -339 47 -94 125 -132 270 -132
l83 0 3 -817 3 -818 31 -55 c54 -96 161 -143 264 -116 63 16 113 55 147 114
27 46 28 51 31 230 4 202 -2 233 -47 252 -33 13 -75 0 -90 -29 -7 -12 -11 -88
-11 -186 0 -186 -8 -215 -60 -234 -36 -12 -66 -3 -95 29 -20 22 -20 40 -25
887 -5 841 -6 865 -24 879 -15 10 -54 14 -157 14 -133 0 -138 1 -168 26 -41
34 -43 89 -5 125 25 24 30 24 227 27 128 2 216 -1 239 -8 70 -20 68 3 68 -675
0 -592 0 -605 20 -625 30 -30 83 -27 109 6 21 26 21 35 21 633 0 387 -4 619
-10 643 -16 56 -69 119 -125 147 -48 25 -54 26 -275 28 -124 1 -241 -2 -260
-6z"/>
<path d="M2805 3700 c-148 -23 -251 -76 -355 -180 -125 -125 -182 -261 -181
-434 0 -107 19 -185 65 -280 l34 -70 -58 -64 c-137 -149 -210 -390 -181 -591
26 -176 97 -319 220 -442 309 -308 805 -296 1101 28 143 156 217 388 191 594
-21 162 -86 308 -188 419 l-53 57 35 69 c47 93 65 170 65 279 0 175 -57 314
-179 435 -115 115 -239 171 -401 183 -36 3 -87 2 -115 -3z m226 -171 c75 -21
167 -83 217 -146 18 -23 47 -72 65 -110 31 -65 32 -73 32 -188 0 -109 -2 -125
-26 -176 -15 -31 -43 -79 -63 -108 -52 -76 -49 -91 34 -168 87 -82 136 -155
171 -256 77 -221 22 -463 -140 -626 -249 -248 -623 -249 -871 -1 -118 118
-175 258 -173 430 1 184 62 321 203 453 80 75 85 93 41 154 -73 101 -102 187
-102 301 0 148 60 271 176 364 123 100 270 125 436 77z"/>
<path d="M2800 3371 c-120 -37 -210 -158 -210 -285 0 -84 26 -143 90 -208 43
-43 69 -60 110 -72 119 -35 216 -12 301 73 63 63 89 125 89 211 0 112 -82 231
-186 269 -56 21 -145 27 -194 12z m158 -161 c67 -41 90 -120 54 -189 -50 -100
-186 -106 -249 -12 -62 92 10 221 122 221 22 0 54 -9 73 -20z"/>
<path d="M2815 2609 c-133 -19 -265 -118 -326 -246 -29 -59 -34 -81 -37 -163
-3 -78 0 -106 18 -159 39 -117 122 -209 238 -264 63 -30 74 -32 178 -32 107 0
112 1 185 37 199 98 294 316 230 526 -62 205 -266 331 -486 301z m185 -171
c184 -79 229 -320 86 -464 -140 -140 -371 -101 -460 78 -35 71 -36 171 -2 243
67 145 228 207 376 143z"/>
<path d="M4383 3169 c-48 -24 -99 -77 -119 -125 -9 -21 -14 -72 -14 -139 l0
-105 -102 0 c-82 0 -112 -5 -148 -21 -95 -43 -144 -117 -144 -219 0 -102 49
-176 144 -219 36 -16 66 -21 147 -21 l101 0 4 -119 c3 -114 4 -121 33 -162 49
-70 104 -102 179 -107 79 -5 127 10 178 56 64 58 81 101 86 225 l5 107 92 0
c121 0 172 18 228 80 24 26 49 66 55 88 26 86 8 162 -55 232 -56 62 -107 80
-228 80 l-92 0 -5 108 c-4 82 -9 116 -25 147 -27 51 -78 100 -125 119 -54 23
-144 20 -195 -5z m164 -153 l28 -24 3 -151 c4 -197 -2 -191 194 -191 l140 0
29 -29 c20 -20 29 -39 29 -61 0 -22 -9 -41 -29 -61 l-29 -29 -140 0 c-196 0
-190 6 -194 -191 l-3 -151 -28 -24 c-38 -32 -90 -32 -122 1 -24 23 -25 29 -25
154 0 71 -5 142 -10 157 -19 49 -34 53 -183 54 -76 0 -147 5 -158 10 -29 16
-51 67 -44 101 4 16 18 38 32 49 23 18 41 20 167 20 152 1 167 5 186 54 5 15
10 86 10 157 0 125 1 131 25 154 32 33 84 33 122 1z"/>
</g>
</svg>
