<?xml version="1.0" encoding="UTF-8"?>
<!-- <!DOCTYPE svg PUBLIC "-//W3C//DTD SVG 1.1//EN" "http://www.w3.org/Graphics/SVG/1.1/DTD/svg11.dtd"> -->
<svg xmlns="http://www.w3.org/2000/svg" version="1.1" width="512px" height="512px" style="shape-rendering:geometricPrecision; text-rendering:geometricPrecision; image-rendering:optimizeQuality; fill-rule:evenodd; clip-rule:evenodd" xmlns:xlink="http://www.w3.org/1999/xlink">
<g><path style="opacity:0.939" fill="#e57f46" d="M 14.5,16.5 C 24.1667,16.5 33.8333,16.5 43.5,16.5C 49.5,22.8333 55.5,29.1667 61.5,35.5C 51.8333,35.5 42.1667,35.5 32.5,35.5C 31.0484,34.6981 29.3817,34.1981 27.5,34C 21.5315,29.0328 15.8648,23.6995 10.5,18C 12.0581,17.79 13.3915,17.29 14.5,16.5 Z"/></g>
<g><path style="opacity:0.905" fill="#e4794b" d="M 43.5,16.5 C 52.8333,16.5 62.1667,16.5 71.5,16.5C 78.1396,22.4729 84.4729,28.8063 90.5,35.5C 80.8333,35.5 71.1667,35.5 61.5,35.5C 55.5,29.1667 49.5,22.8333 43.5,16.5 Z"/></g>
<g><path style="opacity:0.929" fill="#e2734e" d="M 71.5,16.5 C 81.1667,16.5 90.8333,16.5 100.5,16.5C 106.527,23.1937 112.86,29.5271 119.5,35.5C 109.833,35.5 100.167,35.5 90.5,35.5C 84.4729,28.8063 78.1396,22.4729 71.5,16.5 Z"/></g>
<g><path style="opacity:0.953" fill="#e16d52" d="M 100.5,16.5 C 110.167,16.5 119.833,16.5 129.5,16.5C 135.5,22.8333 141.5,29.1667 147.5,35.5C 138.167,35.5 128.833,35.5 119.5,35.5C 112.86,29.5271 106.527,23.1937 100.5,16.5 Z"/></g>
<g><path style="opacity:0.937" fill="#de605a" d="M 161.5,16.5 C 169.833,16.5 178.167,16.5 186.5,16.5C 188.292,17.3091 190.292,17.8091 192.5,18C 197.833,23.3333 203.167,28.6667 208.5,34C 207.263,34.2321 206.263,34.7321 205.5,35.5C 196.833,35.5 188.167,35.5 179.5,35.5C 179.611,34.8826 179.944,34.3826 180.5,34C 173.97,28.3006 167.637,22.4673 161.5,16.5 Z"/></g>
<g><path style="opacity:0.972" fill="#dd5a5e" d="M 186.5,16.5 C 196.167,16.5 205.833,16.5 215.5,16.5C 217.292,17.3091 219.292,17.8091 221.5,18C 226.833,23.3333 232.167,28.6667 237.5,34C 235.942,34.21 234.609,34.71 233.5,35.5C 224.167,35.5 214.833,35.5 205.5,35.5C 206.263,34.7321 207.263,34.2321 208.5,34C 203.167,28.6667 197.833,23.3333 192.5,18C 190.292,17.8091 188.292,17.3091 186.5,16.5 Z"/></g>
<g><path style="opacity:0.924" fill="#dc5461" d="M 215.5,16.5 C 224.833,16.5 234.167,16.5 243.5,16.5C 250.838,21.3235 257.505,27.1568 263.5,34C 262.944,34.3826 262.611,34.8826 262.5,35.5C 252.833,35.5 243.167,35.5 233.5,35.5C 234.609,34.71 235.942,34.21 237.5,34C 232.167,28.6667 226.833,23.3333 221.5,18C 219.292,17.8091 217.292,17.3091 215.5,16.5 Z"/></g>
<g><path style="opacity:0.879" fill="#da4e65" d="M 243.5,16.5 C 258.167,16.5 272.833,16.5 287.5,16.5C 286.391,17.29 285.058,17.79 283.5,18C 288.833,23.3333 294.167,28.6667 299.5,34C 301.708,34.1909 303.708,34.6909 305.5,35.5C 291.167,35.5 276.833,35.5 262.5,35.5C 262.611,34.8826 262.944,34.3826 263.5,34C 257.505,27.1568 250.838,21.3235 243.5,16.5 Z"/></g>
<g><path style="opacity:0.952" fill="#d94769" d="M 287.5,16.5 C 296.833,16.5 306.167,16.5 315.5,16.5C 314.391,17.29 313.058,17.79 311.5,18C 317.469,22.9672 323.135,28.3005 328.5,34C 330.708,34.1909 332.708,34.6909 334.5,35.5C 324.833,35.5 315.167,35.5 305.5,35.5C 303.708,34.6909 301.708,34.1909 299.5,34C 294.167,28.6667 288.833,23.3333 283.5,18C 285.058,17.79 286.391,17.29 287.5,16.5 Z"/></g>
<g><path style="opacity:0.93" fill="#d7416d" d="M 315.5,16.5 C 325.167,16.5 334.833,16.5 344.5,16.5C 343.391,17.29 342.058,17.79 340.5,18C 345.865,23.6995 351.531,29.0328 357.5,34C 359.382,34.1981 361.048,34.6981 362.5,35.5C 353.167,35.5 343.833,35.5 334.5,35.5C 332.708,34.6909 330.708,34.1909 328.5,34C 323.135,28.3005 317.469,22.9672 311.5,18C 313.058,17.79 314.391,17.29 315.5,16.5 Z"/></g>
<g><path style="opacity:0.944" fill="#d53773" d="M 344.5,16.5 C 360.167,16.5 375.833,16.5 391.5,16.5C 398.14,22.4729 404.473,28.8063 410.5,35.5C 394.5,35.5 378.5,35.5 362.5,35.5C 361.048,34.6981 359.382,34.1981 357.5,34C 351.531,29.0328 345.865,23.6995 340.5,18C 342.058,17.79 343.391,17.29 344.5,16.5 Z"/></g>
<g><path style="opacity:0.966" fill="#d32f79" d="M 391.5,16.5 C 404.5,16.5 417.5,16.5 430.5,16.5C 436.5,22.8333 442.5,29.1667 448.5,35.5C 435.833,35.5 423.167,35.5 410.5,35.5C 404.473,28.8063 398.14,22.4729 391.5,16.5 Z"/></g>
<g><path style="opacity:0.966" fill="#d12480" d="M 430.5,16.5 C 455.502,16.3334 480.502,16.5 505.5,17C 507.968,17.9793 509.968,19.4793 511.5,21.5C 511.5,46.1667 511.5,70.8333 511.5,95.5C 505.5,89.8333 499.5,84.1667 493.5,78.5C 493.5,64.1667 493.5,49.8333 493.5,35.5C 478.5,35.5 463.5,35.5 448.5,35.5C 442.5,29.1667 436.5,22.8333 430.5,16.5 Z"/></g>
<g><path style="opacity:0.982" fill="#e78643" d="M 14.5,16.5 C 13.3915,17.29 12.0581,17.79 10.5,18C 15.8648,23.6995 21.5315,29.0328 27.5,34C 29.3817,34.1981 31.0484,34.6981 32.5,35.5C 27.5,35.5 22.5,35.5 17.5,35.5C 17.5,39.1667 17.5,42.8333 17.5,46.5C 11.5,40.8333 5.5,35.1667 -0.5,29.5C -0.5,26.8333 -0.5,24.1667 -0.5,21.5C 3.42454,17.0388 8.42454,15.3721 14.5,16.5 Z"/></g>
<g><path style="opacity:1" fill="#e06756" d="M 129.5,16.5 C 140.167,16.5 150.833,16.5 161.5,16.5C 167.637,22.4673 173.97,28.3006 180.5,34C 179.944,34.3826 179.611,34.8826 179.5,35.5C 168.833,35.5 158.167,35.5 147.5,35.5C 141.5,29.1667 135.5,22.8333 129.5,16.5 Z"/></g>
<g><path style="opacity:0.981" fill="#e88b3f" d="M -0.5,29.5 C 5.5,35.1667 11.5,40.8333 17.5,46.5C 17.5,57.1667 17.5,67.8333 17.5,78.5C 16.0783,78.2914 14.745,77.7914 13.5,77C 8.96455,72.2967 4.29788,67.7967 -0.5,63.5C -0.5,52.1667 -0.5,40.8333 -0.5,29.5 Z"/></g>
<g><path style="opacity:0.864" fill="#e3794b" d="M 136.5,51.5 C 136.5,51.8333 136.5,52.1667 136.5,52.5C 127.161,52.3335 117.827,52.5002 108.5,53C 114.469,57.9672 120.135,63.3005 125.5,69C 123.942,69.21 122.609,69.71 121.5,70.5C 113.5,70.5 105.5,70.5 97.5,70.5C 92.5,64.8333 87.1667,59.5 81.5,54.5C 83.1484,53.0735 85.1484,52.2401 87.5,52C 103.83,51.5001 120.163,51.3334 136.5,51.5 Z"/></g>
<g><path style="opacity:0.974" fill="#e2734e" d="M 136.5,52.5 C 142.833,58.1667 148.833,64.1667 154.5,70.5C 143.5,70.5 132.5,70.5 121.5,70.5C 122.609,69.71 123.942,69.21 125.5,69C 120.135,63.3005 114.469,57.9672 108.5,53C 117.827,52.5002 127.161,52.3335 136.5,52.5 Z"/></g>
<g><path style="opacity:0.967" fill="#e16d52" d="M 136.5,52.5 C 136.5,52.1667 136.5,51.8333 136.5,51.5C 141.5,51.5 146.5,51.5 151.5,51.5C 156.316,52.3261 161.316,52.8261 166.5,53C 171.833,58.3333 177.167,63.6667 182.5,69C 184.708,69.1909 186.708,69.6909 188.5,70.5C 177.167,70.5 165.833,70.5 154.5,70.5C 148.833,64.1667 142.833,58.1667 136.5,52.5 Z"/></g>
<g><path style="opacity:0.978" fill="#e06756" d="M 151.5,51.5 C 170.5,51.5 189.5,51.5 208.5,51.5C 208.5,51.8333 208.5,52.1667 208.5,52.5C 205.482,52.3354 202.482,52.502 199.5,53C 205.395,59.0636 211.395,64.8969 217.5,70.5C 207.833,70.5 198.167,70.5 188.5,70.5C 186.708,69.6909 184.708,69.1909 182.5,69C 177.167,63.6667 171.833,58.3333 166.5,53C 161.316,52.8261 156.316,52.3261 151.5,51.5 Z"/></g>
<g><path style="opacity:0.981" fill="#de605a" d="M 208.5,52.5 C 215.175,52.3337 221.842,52.5004 228.5,53C 233.833,58.3333 239.167,63.6667 244.5,69C 243.263,69.2321 242.263,69.7321 241.5,70.5C 233.5,70.5 225.5,70.5 217.5,70.5C 211.395,64.8969 205.395,59.0636 199.5,53C 202.482,52.502 205.482,52.3354 208.5,52.5 Z"/></g>
<g><path style="opacity:0.987" fill="#dd5a5e" d="M 208.5,52.5 C 208.5,52.1667 208.5,51.8333 208.5,51.5C 227.833,51.5 247.167,51.5 266.5,51.5C 263.695,52.3195 260.695,52.8195 257.5,53C 263.37,58.7019 269.036,64.5353 274.5,70.5C 263.5,70.5 252.5,70.5 241.5,70.5C 242.263,69.7321 243.263,69.2321 244.5,69C 239.167,63.6667 233.833,58.3333 228.5,53C 221.842,52.5004 215.175,52.3337 208.5,52.5 Z"/></g>
<g><path style="opacity:1" fill="#db5163" d="M 266.5,51.5 C 270.833,51.5 275.167,51.5 279.5,51.5C 287.323,52.3292 295.323,52.8292 303.5,53C 308.865,58.6995 314.531,64.0328 320.5,69C 316.312,69.1762 312.312,69.6762 308.5,70.5C 297.167,70.5 285.833,70.5 274.5,70.5C 269.036,64.5353 263.37,58.7019 257.5,53C 260.695,52.8195 263.695,52.3195 266.5,51.5 Z"/></g>
<g><path style="opacity:0.987" fill="#d94969" d="M 279.5,51.5 C 303.5,51.5 327.5,51.5 351.5,51.5C 350.391,52.29 349.058,52.79 347.5,53C 353.469,57.9672 359.135,63.3005 364.5,69C 362.942,69.21 361.609,69.71 360.5,70.5C 343.167,70.5 325.833,70.5 308.5,70.5C 312.312,69.6762 316.312,69.1762 320.5,69C 314.531,64.0328 308.865,58.6995 303.5,53C 295.323,52.8292 287.323,52.3292 279.5,51.5 Z"/></g>
<g><path style="opacity:0.974" fill="#d7416d" d="M 351.5,51.5 C 361.5,51.5 371.5,51.5 381.5,51.5C 380.048,52.3019 378.382,52.8019 376.5,53C 382.395,59.0636 388.395,64.8969 394.5,70.5C 383.167,70.5 371.833,70.5 360.5,70.5C 361.609,69.71 362.942,69.21 364.5,69C 359.135,63.3005 353.469,57.9672 347.5,53C 349.058,52.79 350.391,52.29 351.5,51.5 Z"/></g>
<g><path style="opacity:0.978" fill="#d63a72" d="M 381.5,51.5 C 395.504,51.3334 409.504,51.5001 423.5,52C 427.438,52.2141 430.272,54.0474 432,57.5C 433.791,81.9574 446.957,95.124 471.5,97C 472.931,97.4652 474.097,98.2986 475,99.5C 476.474,117.74 476.974,136.073 476.5,154.5C 475.691,152.708 475.191,150.708 475,148.5C 469.929,142.924 464.429,137.924 458.5,133.5C 458.5,126.833 458.5,120.167 458.5,113.5C 435.09,108.758 420.423,94.7581 414.5,71.5C 407.866,70.5033 401.2,70.17 394.5,70.5C 388.395,64.8969 382.395,59.0636 376.5,53C 378.382,52.8019 380.048,52.3019 381.5,51.5 Z"/></g>
<g><path style="opacity:0.966" fill="#e58047" d="M 81.5,54.5 C 87.1667,59.5 92.5,64.8333 97.5,70.5C 95.7115,74.265 94.2115,78.265 93,82.5C 91.6429,85.8981 89.8096,88.8981 87.5,91.5C 82.9281,88.4367 78.7615,84.77 75,80.5C 74.5172,79.552 74.3505,78.552 74.5,77.5C 77.2535,71.1494 78.7535,64.4827 79,57.5C 79.3768,56.0577 80.2101,55.0577 81.5,54.5 Z"/></g>
<g><path style="opacity:0.983" fill="#e9923b" d="M -0.5,63.5 C 4.29788,67.7967 8.96455,72.2967 13.5,77C 14.745,77.7914 16.0783,78.2914 17.5,78.5C 17.5,86.8333 17.5,95.1667 17.5,103.5C 16.7321,104.263 16.2321,105.263 16,106.5C 10.3303,101.663 4.83034,96.6626 -0.5,91.5C -0.5,82.1667 -0.5,72.8333 -0.5,63.5 Z"/></g>
<g><path style="opacity:0.981" fill="#d32e79" d="M 493.5,78.5 C 499.5,84.1667 505.5,89.8333 511.5,95.5C 511.5,104.833 511.5,114.167 511.5,123.5C 505.5,117.833 499.5,112.167 493.5,106.5C 493.5,97.1667 493.5,87.8333 493.5,78.5 Z"/></g>
<g><path style="opacity:0.974" fill="#e78643" d="M 74.5,77.5 C 74.3505,78.552 74.5172,79.552 75,80.5C 78.7615,84.77 82.9281,88.4367 87.5,91.5C 83.4308,97.9042 78.0975,102.904 71.5,106.5C 68.4367,101.928 64.77,97.7615 60.5,94C 59.552,93.5172 58.552,93.3505 57.5,93.5C 64.4529,89.5476 70.1195,84.2142 74.5,77.5 Z"/></g>
<g><path style="opacity:0.974" fill="#e16d52" d="M 202.5,87.5 C 208.167,93.5 213.833,99.5 219.5,105.5C 207.833,105.5 196.167,105.5 184.5,105.5C 184.5,99.5 184.5,93.5 184.5,87.5C 190.5,87.5 196.5,87.5 202.5,87.5 Z"/></g>
<g><path style="opacity:0.981" fill="#de605a" d="M 235.5,87.5 C 245.167,87.5 254.833,87.5 264.5,87.5C 270.167,93.5 275.833,99.5 281.5,105.5C 272.167,105.5 262.833,105.5 253.5,105.5C 247.194,99.8604 241.194,93.8604 235.5,87.5 Z"/></g>
<g><path style="opacity:0.981" fill="#dd5a5e" d="M 264.5,87.5 C 274.167,87.5 283.833,87.5 293.5,87.5C 299.167,93.5 304.833,99.5 310.5,105.5C 300.833,105.5 291.167,105.5 281.5,105.5C 275.833,99.5 270.167,93.5 264.5,87.5 Z"/></g>
<g><path style="opacity:0.966" fill="#dc5461" d="M 293.5,87.5 C 304.5,87.5 315.5,87.5 326.5,87.5C 326.5,93.5 326.5,99.5 326.5,105.5C 321.167,105.5 315.833,105.5 310.5,105.5C 304.833,99.5 299.167,93.5 293.5,87.5 Z"/></g>
<g><path style="opacity:0.996" fill="#e06756" d="M 202.5,87.5 C 213.5,87.5 224.5,87.5 235.5,87.5C 241.194,93.8604 247.194,99.8604 253.5,105.5C 242.167,105.5 230.833,105.5 219.5,105.5C 213.833,99.5 208.167,93.5 202.5,87.5 Z"/></g>
<g><path style="opacity:0.98" fill="#e88c3f" d="M 57.5,93.5 C 58.552,93.3505 59.552,93.5172 60.5,94C 64.77,97.7615 68.4367,101.928 71.5,106.5C 65.9205,110.585 59.5871,112.919 52.5,113.5C 46.8705,109.206 41.5372,104.539 36.5,99.5C 37.0577,98.2101 38.0577,97.3768 39.5,97C 45.5836,96.1533 51.5836,94.9866 57.5,93.5 Z"/></g>
<g><path style="opacity:0.975" fill="#eb9937" d="M -0.5,91.5 C 4.83034,96.6626 10.3303,101.663 16,106.5C 16.2321,105.263 16.7321,104.263 17.5,103.5C 17.5,115.833 17.5,128.167 17.5,140.5C 11.5,134.833 5.5,129.167 -0.5,123.5C -0.5,112.833 -0.5,102.167 -0.5,91.5 Z"/></g>
<g><path style="opacity:0.981" fill="#e9923b" d="M 36.5,99.5 C 41.5372,104.539 46.8705,109.206 52.5,113.5C 52.5,122.833 52.5,132.167 52.5,141.5C 46.2026,136.538 40.2026,131.205 34.5,125.5C 34.3336,117.493 34.5003,109.493 35,101.5C 35.2784,100.584 35.7784,99.9175 36.5,99.5 Z"/></g>
<g><path style="opacity:0.938" fill="#e57f47" d="M 155.5,122.5 C 155.082,123.222 154.416,123.722 153.5,124C 158.833,129.333 164.167,134.667 169.5,140C 167.942,140.21 166.609,140.71 165.5,141.5C 154.167,141.5 142.833,141.5 131.5,141.5C 131.5,135.167 131.5,128.833 131.5,122.5C 139.5,122.5 147.5,122.5 155.5,122.5 Z"/></g>
<g><path style="opacity:0.947" fill="#e4794b" d="M 155.5,122.5 C 162.5,122.5 169.5,122.5 176.5,122.5C 177.952,123.302 179.618,123.802 181.5,124C 187.469,128.967 193.135,134.301 198.5,140C 200.708,140.191 202.708,140.691 204.5,141.5C 191.5,141.5 178.5,141.5 165.5,141.5C 166.609,140.71 167.942,140.21 169.5,140C 164.167,134.667 158.833,129.333 153.5,124C 154.416,123.722 155.082,123.222 155.5,122.5 Z"/></g>
<g><path style="opacity:0.938" fill="#e2734e" d="M 176.5,122.5 C 187.167,122.5 197.833,122.5 208.5,122.5C 215.215,128.548 221.548,134.881 227.5,141.5C 219.833,141.5 212.167,141.5 204.5,141.5C 202.708,140.691 200.708,140.191 198.5,140C 193.135,134.301 187.469,128.967 181.5,124C 179.618,123.802 177.952,123.302 176.5,122.5 Z"/></g>
<g><path style="opacity:0.906" fill="#e16d52" d="M 208.5,122.5 C 216.833,122.5 225.167,122.5 233.5,122.5C 235.292,123.309 237.292,123.809 239.5,124C 244.833,129.333 250.167,134.667 255.5,140C 259.025,140.179 262.359,140.679 265.5,141.5C 252.833,141.5 240.167,141.5 227.5,141.5C 221.548,134.881 215.215,128.548 208.5,122.5 Z"/></g>
<g><path style="opacity:0.924" fill="#e06756" d="M 233.5,122.5 C 246.167,122.5 258.833,122.5 271.5,122.5C 277.232,128.547 283.232,134.381 289.5,140C 288.944,140.383 288.611,140.883 288.5,141.5C 280.833,141.5 273.167,141.5 265.5,141.5C 262.359,140.679 259.025,140.179 255.5,140C 250.167,134.667 244.833,129.333 239.5,124C 237.292,123.809 235.292,123.309 233.5,122.5 Z"/></g>
<g><path style="opacity:0.925" fill="#de605a" d="M 271.5,122.5 C 281.5,122.5 291.5,122.5 301.5,122.5C 306.803,129.47 312.803,135.804 319.5,141.5C 309.167,141.5 298.833,141.5 288.5,141.5C 288.611,140.883 288.944,140.383 289.5,140C 283.232,134.381 277.232,128.547 271.5,122.5 Z"/></g>
<g><path style="opacity:0.927" fill="#dd5a5e" d="M 301.5,122.5 C 310.833,122.5 320.167,122.5 329.5,122.5C 334.964,128.465 340.63,134.298 346.5,140C 344.942,140.21 343.609,140.71 342.5,141.5C 334.833,141.5 327.167,141.5 319.5,141.5C 312.803,135.804 306.803,129.47 301.5,122.5 Z"/></g>
<g><path style="opacity:0.954" fill="#db5362" d="M 329.5,122.5 C 346.167,122.5 362.833,122.5 379.5,122.5C 379.5,128.833 379.5,135.167 379.5,141.5C 367.167,141.5 354.833,141.5 342.5,141.5C 343.609,140.71 344.942,140.21 346.5,140C 340.63,134.298 334.964,128.465 329.5,122.5 Z"/></g>
<g><path style="opacity:0.981" fill="#ec9f33" d="M -0.5,123.5 C 5.5,129.167 11.5,134.833 17.5,140.5C 17.5,149.833 17.5,159.167 17.5,168.5C 11.5,162.833 5.5,157.167 -0.5,151.5C -0.5,142.167 -0.5,132.833 -0.5,123.5 Z"/></g>
<g><path style="opacity:0.984" fill="#d7416d" d="M 458.5,133.5 C 464.429,137.924 469.929,142.924 475,148.5C 475.191,150.708 475.691,152.708 476.5,154.5C 476.5,162.167 476.5,169.833 476.5,177.5C 470.5,171.833 464.5,166.167 458.5,160.5C 458.5,151.5 458.5,142.5 458.5,133.5 Z"/></g>
<g><path style="opacity:0.983" fill="#eb9937" d="M 34.5,125.5 C 40.2026,131.205 46.2026,136.538 52.5,141.5C 52.5,152.5 52.5,163.5 52.5,174.5C 46.8686,169.37 41.3686,164.036 36,158.5C 35.79,160.058 35.29,161.391 34.5,162.5C 34.5,150.167 34.5,137.833 34.5,125.5 Z"/></g>
<g><path style="opacity:0.985" fill="#d53972" d="M 493.5,106.5 C 499.5,112.167 505.5,117.833 511.5,123.5C 511.5,143.5 511.5,163.5 511.5,183.5C 503.873,177.567 497.873,170.567 493.5,162.5C 493.5,143.833 493.5,125.167 493.5,106.5 Z"/></g>
<g><path style="opacity:0.98" fill="#eea52f" d="M -0.5,151.5 C 5.5,157.167 11.5,162.833 17.5,168.5C 17.5,177.833 17.5,187.167 17.5,196.5C 11.5,190.833 5.5,185.167 -0.5,179.5C -0.5,170.167 -0.5,160.833 -0.5,151.5 Z"/></g>
<g><path style="opacity:0.994" fill="#ec9f33" d="M 52.5,174.5 C 52.5,183.833 52.5,193.167 52.5,202.5C 46.5,196.833 40.5,191.167 34.5,185.5C 34.5,177.833 34.5,170.167 34.5,162.5C 35.29,161.391 35.79,160.058 36,158.5C 41.3686,164.036 46.8686,169.37 52.5,174.5 Z"/></g>
<g><path style="opacity:0.981" fill="#d7416d" d="M 493.5,162.5 C 497.873,170.567 503.873,177.567 511.5,183.5C 511.5,192.833 511.5,202.167 511.5,211.5C 505.869,206.37 500.369,201.036 495,195.5C 494.802,193.618 494.302,191.952 493.5,190.5C 493.5,181.167 493.5,171.833 493.5,162.5 Z"/></g>
<g><path style="opacity:0.981" fill="#d94769" d="M 458.5,160.5 C 464.5,166.167 470.5,171.833 476.5,177.5C 476.5,186.833 476.5,196.167 476.5,205.5C 470.5,199.833 464.5,194.167 458.5,188.5C 458.5,179.167 458.5,169.833 458.5,160.5 Z"/></g>
<g><path style="opacity:0.956" fill="#e2734e" d="M 265.5,176.5 C 272.5,183.833 279.5,191.167 286.5,198.5C 275.707,195.535 264.707,194.202 253.5,194.5C 248.167,188.5 242.5,182.833 236.5,177.5C 246.123,175.469 255.789,175.135 265.5,176.5 Z"/></g>
<g><path style="opacity:0.958" fill="#e4794b" d="M 236.5,177.5 C 242.5,182.833 248.167,188.5 253.5,194.5C 244.729,194.629 236.062,195.629 227.5,197.5C 223.482,192.154 219.149,187.154 214.5,182.5C 221.6,179.892 228.933,178.225 236.5,177.5 Z"/></g>
<g><path style="opacity:0.98" fill="#e16c53" d="M 265.5,176.5 C 318.147,182.405 353.98,210.072 373,259.5C 374.976,265.735 376.476,272.068 377.5,278.5C 368.48,270.478 359.48,262.478 350.5,254.5C 336.906,226.901 315.572,208.234 286.5,198.5C 279.5,191.167 272.5,183.833 265.5,176.5 Z"/></g>
<g><path style="opacity:0.967" fill="#e58047" d="M 214.5,182.5 C 219.149,187.154 223.482,192.154 227.5,197.5C 220.082,200.089 212.749,203.089 205.5,206.5C 200.206,202.873 195.539,198.54 191.5,193.5C 198.737,189.049 206.404,185.382 214.5,182.5 Z"/></g>
<g><path style="opacity:0.981" fill="#da4e65" d="M 458.5,188.5 C 464.5,194.167 470.5,199.833 476.5,205.5C 476.5,217.167 476.5,228.833 476.5,240.5C 471.17,235.337 465.67,230.337 460,225.5C 459.809,227.708 459.309,229.708 458.5,231.5C 458.5,217.167 458.5,202.833 458.5,188.5 Z"/></g>
<g><path style="opacity:0.972" fill="#e88a40" d="M 191.5,193.5 C 195.539,198.54 200.206,202.873 205.5,206.5C 193.773,213.719 183.106,222.385 173.5,232.5C 169.773,227.77 165.44,223.77 160.5,220.5C 163.921,215.574 167.921,211.074 172.5,207C 178.435,201.892 184.768,197.392 191.5,193.5 Z"/></g>
<g><path style="opacity:0.981" fill="#d94769" d="M 493.5,190.5 C 494.302,191.952 494.802,193.618 495,195.5C 500.369,201.036 505.869,206.37 511.5,211.5C 511.5,220.833 511.5,230.167 511.5,239.5C 505.5,233.833 499.5,228.167 493.5,222.5C 493.5,211.833 493.5,201.167 493.5,190.5 Z"/></g>
<g><path style="opacity:0.984" fill="#f0b029" d="M -0.5,179.5 C 5.5,185.167 11.5,190.833 17.5,196.5C 17.5,214.833 17.5,233.167 17.5,251.5C 16.71,252.609 16.21,253.942 16,255.5C 10.9287,249.924 5.42867,244.924 -0.5,240.5C -0.5,220.167 -0.5,199.833 -0.5,179.5 Z"/></g>
<g><path style="opacity:0.965" fill="#eea82d" d="M 34.5,185.5 C 40.5,191.167 46.5,196.833 52.5,202.5C 52.5,214.5 52.5,226.5 52.5,238.5C 75.9105,243.242 90.5771,257.242 96.5,280.5C 108.895,281.811 121.229,281.811 133.5,280.5C 138.557,286.559 144.224,291.893 150.5,296.5C 149.809,307.773 151.142,318.773 154.5,329.5C 146.833,322.167 139.167,314.833 131.5,307.5C 131.5,305.167 131.5,302.833 131.5,300.5C 118.167,300.5 104.833,300.5 91.5,300.5C 95.9819,299.674 100.649,299.174 105.5,299C 82.3333,276.5 59.1667,254 36,231.5C 35.8195,228.305 35.3195,225.305 34.5,222.5C 34.5,210.167 34.5,197.833 34.5,185.5 Z"/></g>
<g><path style="opacity:0.957" fill="#ea933a" d="M 160.5,220.5 C 165.44,223.77 169.773,227.77 173.5,232.5C 168.913,239.34 164.58,246.34 160.5,253.5C 155.533,249.868 150.867,245.868 146.5,241.5C 149.929,233.631 154.596,226.631 160.5,220.5 Z"/></g>
<g><path style="opacity:0.968" fill="#e57f47" d="M 307.5,273.5 C 317.918,284.526 328.918,294.86 340.5,304.5C 338.035,312.771 334.035,320.104 328.5,326.5C 323.833,322.5 319.5,318.167 315.5,313.5C 320.049,306.867 323.049,299.533 324.5,291.5C 314.53,290.807 304.863,292.141 295.5,295.5C 288.167,287.5 280.5,279.833 272.5,272.5C 270.807,260.947 265.807,251.114 257.5,243C 256.167,242.333 254.833,242.333 253.5,243C 252.167,245.191 250.5,247.024 248.5,248.5C 244.133,244.132 239.467,240.132 234.5,236.5C 239.33,230.837 244.663,225.67 250.5,221C 253.833,219 257.167,219 260.5,221C 279.971,234.811 290.471,253.644 292,277.5C 296.906,275.218 302.073,273.885 307.5,273.5 Z"/></g>
<g><path style="opacity:0.972" fill="#f0ad2a" d="M 34.5,222.5 C 35.3195,225.305 35.8195,228.305 36,231.5C 59.1667,254 82.3333,276.5 105.5,299C 100.649,299.174 95.9819,299.674 91.5,300.5C 87.1249,300.653 83.2916,299.32 80,296.5C 78.276,271.11 64.776,257.277 39.5,255C 38.0692,254.535 36.9025,253.701 36,252.5C 34.5505,242.605 34.0505,232.605 34.5,222.5 Z"/></g>
<g><path style="opacity:0.982" fill="#dc5461" d="M 476.5,240.5 C 476.854,244.637 476.354,248.637 475,252.5C 473.005,254.747 470.505,255.747 467.5,255.5C 466.448,255.649 465.448,255.483 464.5,255C 460.167,250.667 455.833,246.333 451.5,242C 450.207,241.51 448.873,241.343 447.5,241.5C 450.799,239.517 454.466,238.517 458.5,238.5C 458.5,236.167 458.5,233.833 458.5,231.5C 459.309,229.708 459.809,227.708 460,225.5C 465.67,230.337 471.17,235.337 476.5,240.5 Z"/></g>
<g><path style="opacity:1" fill="#da4e65" d="M 493.5,222.5 C 499.5,228.167 505.5,233.833 511.5,239.5C 511.5,251.167 511.5,262.833 511.5,274.5C 505.797,268.795 499.797,263.462 493.5,258.5C 493.5,246.5 493.5,234.5 493.5,222.5 Z"/></g>
<g><path style="opacity:0.969" fill="#dd5a5e" d="M 447.5,241.5 C 448.873,241.343 450.207,241.51 451.5,242C 455.833,246.333 460.167,250.667 464.5,255C 465.448,255.483 466.448,255.649 467.5,255.5C 459.602,256.357 452.268,259.024 445.5,263.5C 440.86,259.527 436.527,255.194 432.5,250.5C 436.708,246.315 441.708,243.315 447.5,241.5 Z"/></g>
<g><path style="opacity:0.963" fill="#de605a" d="M 432.5,250.5 C 436.527,255.194 440.86,259.527 445.5,263.5C 439.986,268.539 435.986,274.539 433.5,281.5C 430.021,275.35 425.021,271.017 418.5,268.5C 422.051,261.617 426.718,255.617 432.5,250.5 Z"/></g>
<g><path style="opacity:0.972" fill="#e78941" d="M 234.5,236.5 C 239.467,240.132 244.133,244.132 248.5,248.5C 238.452,260.675 236.452,274.008 242.5,288.5C 242.565,288.938 242.399,289.272 242,289.5C 235.303,282.468 228.303,275.802 221,269.5C 220.617,270.056 220.117,270.389 219.5,270.5C 221.249,257.675 226.249,246.342 234.5,236.5 Z"/></g>
<g><path style="opacity:0.981" fill="#dc5461" d="M 493.5,258.5 C 499.797,263.462 505.797,268.795 511.5,274.5C 511.5,282.833 511.5,291.167 511.5,299.5C 505.5,294.167 499.5,288.833 493.5,283.5C 493.5,275.167 493.5,266.833 493.5,258.5 Z"/></g>
<g><path style="opacity:0.975" fill="#ec9e34" d="M 146.5,241.5 C 150.867,245.868 155.533,249.868 160.5,253.5C 154.177,267.126 150.844,281.459 150.5,296.5C 144.224,291.893 138.557,286.559 133.5,280.5C 134.925,266.44 139.258,253.44 146.5,241.5 Z"/></g>
<g><path style="opacity:0.971" fill="#e2724f" d="M 350.5,254.5 C 359.48,262.478 368.48,270.478 377.5,278.5C 377.5,280.5 378.5,281.5 380.5,281.5C 385.964,287.465 391.63,293.298 397.5,299C 402.019,299.175 406.353,299.675 410.5,300.5C 400.167,300.5 389.833,300.5 379.5,300.5C 379.563,305.203 379.229,309.87 378.5,314.5C 373.702,310.203 369.035,305.703 364.5,301C 363.255,300.209 361.922,299.709 360.5,299.5C 360.791,283.666 357.457,268.666 350.5,254.5 Z"/></g>
<g><path style="opacity:0.982" fill="#e88e3e" d="M 242.5,288.5 C 246.052,294.394 250.386,299.727 255.5,304.5C 259.542,301.369 262.875,297.702 265.5,293.5C 269.771,297.269 273.938,301.269 278,305.5C 278.483,306.448 278.649,307.448 278.5,308.5C 274.905,313.365 271.572,318.365 268.5,323.5C 254.732,311.234 241.399,298.401 228.5,285C 225.244,282.223 221.911,279.723 218.5,277.5C 219.468,275.393 219.802,273.059 219.5,270.5C 220.117,270.389 220.617,270.056 221,269.5C 228.303,275.802 235.303,282.468 242,289.5C 242.399,289.272 242.565,288.938 242.5,288.5 Z"/></g>
<g><path style="opacity:0.967" fill="#eb9937" d="M 191.5,272.5 C 190.391,273.29 189.058,273.79 187.5,274C 194.337,279.671 200.671,285.838 206.5,292.5C 199.863,291.724 193.196,291.391 186.5,291.5C 187.804,298.752 190.471,305.418 194.5,311.5C 187.031,305.557 179.698,298.724 172.5,291C 170.714,290.215 169.214,289.049 168,287.5C 167.601,287.728 167.435,288.062 167.5,288.5C 165.636,283.196 166.636,278.363 170.5,274C 177.411,272.616 184.411,272.116 191.5,272.5 Z"/></g>
<g><path style="opacity:0.978" fill="#e9923b" d="M 191.5,272.5 C 200.954,272.417 209.954,274.083 218.5,277.5C 221.911,279.723 225.244,282.223 228.5,285C 241.399,298.401 254.732,311.234 268.5,323.5C 267.801,327.096 266.801,330.596 265.5,334C 272.315,334.871 278.982,334.371 285.5,332.5C 290.579,337.915 296.246,342.582 302.5,346.5C 298.86,348.662 294.86,350.162 290.5,351C 281.471,352.042 272.804,353.542 264.5,355.5C 257.069,349.573 250.069,343.073 243.5,336C 245.343,335.841 246.009,335.341 245.5,334.5C 240.051,313.388 227.051,299.388 206.5,292.5C 200.671,285.838 194.337,279.671 187.5,274C 189.058,273.79 190.391,273.29 191.5,272.5 Z"/></g>
<g><path style="opacity:0.949" fill="#e4794a" d="M 340.5,304.5 C 328.918,294.86 317.918,284.526 307.5,273.5C 317.466,272.409 327.466,272.242 337.5,273C 342.336,274.992 344.669,278.659 344.5,284C 344.043,291.05 342.709,297.884 340.5,304.5 Z"/></g>
<g><path style="opacity:0.981" fill="#e06656" d="M 418.5,268.5 C 425.021,271.017 430.021,275.35 433.5,281.5C 432.965,285.819 432.465,290.152 432,294.5C 431.252,296.751 429.752,298.084 427.5,298.5C 421.5,293.167 415.833,287.5 410.5,281.5C 411.978,281.762 413.311,281.429 414.5,280.5C 415.64,276.414 416.973,272.414 418.5,268.5 Z"/></g>
<g><path style="opacity:0.982" fill="#e78643" d="M 272.5,272.5 C 280.5,279.833 288.167,287.5 295.5,295.5C 289.332,299.095 283.665,303.428 278.5,308.5C 278.649,307.448 278.483,306.448 278,305.5C 273.938,301.269 269.771,297.269 265.5,293.5C 269.228,286.982 271.562,279.982 272.5,272.5 Z"/></g>
<g><path style="opacity:0.969" fill="#e16c53" d="M 380.5,281.5 C 390.5,281.5 400.5,281.5 410.5,281.5C 415.833,287.5 421.5,293.167 427.5,298.5C 426.737,299.268 425.737,299.768 424.5,300C 419.845,300.499 415.179,300.666 410.5,300.5C 406.353,299.675 402.019,299.175 397.5,299C 391.63,293.298 385.964,287.465 380.5,281.5 Z"/></g>
<g><path style="opacity:0.981" fill="#dd5a5e" d="M 493.5,283.5 C 499.5,288.833 505.5,294.167 511.5,299.5C 511.5,308.833 511.5,318.167 511.5,327.5C 505.797,321.795 499.797,316.462 493.5,311.5C 493.5,302.167 493.5,292.833 493.5,283.5 Z"/></g>
<g><path style="opacity:0.981" fill="#f3bc21" d="M -0.5,240.5 C 5.42867,244.924 10.9287,249.924 16,255.5C 16.21,253.942 16.71,252.609 17.5,251.5C 17.5,271.833 17.5,292.167 17.5,312.5C 11.5,306.833 5.5,301.167 -0.5,295.5C -0.5,277.167 -0.5,258.833 -0.5,240.5 Z"/></g>
<g><path style="opacity:0.976" fill="#ec9f33" d="M 194.5,311.5 C 199.469,317.501 205.135,322.834 211.5,327.5C 211.062,327.435 210.728,327.601 210.5,328C 218.702,336.035 226.702,344.202 234.5,352.5C 201.063,349.907 179.23,332.573 169,300.5C 167.985,296.56 167.485,292.56 167.5,288.5C 167.435,288.062 167.601,287.728 168,287.5C 169.214,289.049 170.714,290.215 172.5,291C 179.698,298.724 187.031,305.557 194.5,311.5 Z"/></g>
<g><path style="opacity:0.966" fill="#f4c41c" d="M -0.5,295.5 C 5.5,301.167 11.5,306.833 17.5,312.5C 17.5,313.833 17.5,315.167 17.5,316.5C 20.5,316.5 23.5,316.5 26.5,316.5C 25.3915,317.29 24.0581,317.79 22.5,318C 29.0038,323.337 35.0038,329.171 40.5,335.5C 28.8286,335.667 17.1619,335.5 5.5,335C 2.85408,334.196 0.854084,332.696 -0.5,330.5C -0.5,318.833 -0.5,307.167 -0.5,295.5 Z"/></g>
<g><path style="opacity:0.956" fill="#e4784b" d="M 360.5,299.5 C 361.922,299.709 363.255,300.209 364.5,301C 369.035,305.703 373.702,310.203 378.5,314.5C 380.279,316.344 382.612,317.01 385.5,316.5C 384.391,317.29 383.058,317.79 381.5,318C 387.395,324.064 393.395,329.897 399.5,335.5C 391.16,335.334 382.827,335.5 374.5,336C 373.944,336.383 373.611,336.883 373.5,337.5C 368.5,332.833 363.5,328.167 358.5,323.5C 359.93,315.572 360.597,307.572 360.5,299.5 Z"/></g>
<g><path style="opacity:0.967" fill="#de605a" d="M 493.5,311.5 C 499.797,316.462 505.797,321.795 511.5,327.5C 511.5,328.5 511.5,329.5 511.5,330.5C 510.146,332.696 508.146,334.196 505.5,335C 500.177,335.499 494.844,335.666 489.5,335.5C 484.036,329.535 478.37,323.702 472.5,318C 475.365,317.817 478.031,317.317 480.5,316.5C 484.833,316.5 489.167,316.5 493.5,316.5C 493.5,314.833 493.5,313.167 493.5,311.5 Z"/></g>
<g><path style="opacity:0.924" fill="#f0b227" d="M 78.5,316.5 C 91.1667,316.5 103.833,316.5 116.5,316.5C 115.737,317.268 114.737,317.768 113.5,318C 119.395,324.064 125.395,329.897 131.5,335.5C 120.167,335.5 108.833,335.5 97.5,335.5C 91.4729,328.806 85.1396,322.473 78.5,316.5 Z"/></g>
<g><path style="opacity:0.937" fill="#e2734e" d="M 385.5,316.5 C 393.5,316.5 401.5,316.5 409.5,316.5C 415.5,322.833 421.5,329.167 427.5,335.5C 418.167,335.5 408.833,335.5 399.5,335.5C 393.395,329.897 387.395,324.064 381.5,318C 383.058,317.79 384.391,317.29 385.5,316.5 Z"/></g>
<g><path style="opacity:0.961" fill="#e16d52" d="M 409.5,316.5 C 417.5,316.5 425.5,316.5 433.5,316.5C 436.902,316.972 439.902,318.472 442.5,321C 447.37,325.702 452.037,330.535 456.5,335.5C 446.833,335.5 437.167,335.5 427.5,335.5C 421.5,329.167 415.5,322.833 409.5,316.5 Z"/></g>
<g><path style="opacity:0.968" fill="#f3bc21" d="M 26.5,316.5 C 43.8333,316.5 61.1667,316.5 78.5,316.5C 85.1396,322.473 91.4729,328.806 97.5,335.5C 78.5,335.5 59.5,335.5 40.5,335.5C 35.0038,329.171 29.0038,323.337 22.5,318C 24.0581,317.79 25.3915,317.29 26.5,316.5 Z"/></g>
<g><path style="opacity:0.985" fill="#efac2b" d="M 131.5,307.5 C 139.167,314.833 146.833,322.167 154.5,329.5C 163.19,356.711 179.856,377.545 204.5,392C 212.424,396.298 220.757,399.464 229.5,401.5C 229.369,402.239 229.536,402.906 230,403.5C 237.338,409.671 244.171,416.338 250.5,423.5C 241.801,423.234 233.301,421.901 225,419.5C 223.955,420.373 223.122,421.373 222.5,422.5C 201.116,403.62 180.45,383.787 160.5,363C 153.609,356.603 146.609,350.436 139.5,344.5C 138.774,341.821 137.941,339.154 137,336.5C 135.301,335.594 133.467,335.261 131.5,335.5C 125.395,329.897 119.395,324.064 113.5,318C 114.737,317.768 115.737,317.268 116.5,316.5C 121.833,316.5 127.167,316.5 132.5,316.5C 132.492,313.455 132.159,310.455 131.5,307.5 Z"/></g>
<g><path style="opacity:1" fill="#e06756" d="M 433.5,316.5 C 449.167,316.5 464.833,316.5 480.5,316.5C 478.031,317.317 475.365,317.817 472.5,318C 478.37,323.702 484.036,329.535 489.5,335.5C 478.5,335.5 467.5,335.5 456.5,335.5C 452.037,330.535 447.37,325.702 442.5,321C 439.902,318.472 436.902,316.972 433.5,316.5 Z"/></g>
<g><path style="opacity:0.956" fill="#e68047" d="M 358.5,323.5 C 363.5,328.167 368.5,332.833 373.5,337.5C 370.97,346.119 367.304,354.119 362.5,361.5C 358.895,356.226 354.562,351.559 349.5,347.5C 353.111,339.632 356.111,331.632 358.5,323.5 Z"/></g>
<g><path style="opacity:0.978" fill="#eb9a36" d="M 211.5,327.5 C 222.13,332.893 233.464,335.227 245.5,334.5C 246.009,335.341 245.343,335.841 243.5,336C 250.069,343.073 257.069,349.573 264.5,355.5C 264.5,363.5 264.5,371.5 264.5,379.5C 258.5,379.5 252.5,379.5 246.5,379.5C 246.5,370.833 246.5,362.167 246.5,353.5C 242.298,353.817 238.298,353.483 234.5,352.5C 226.702,344.202 218.702,336.035 210.5,328C 210.728,327.601 211.062,327.435 211.5,327.5 Z"/></g>
<g><path style="opacity:0.975" fill="#e88941" d="M 315.5,313.5 C 319.5,318.167 323.833,322.5 328.5,326.5C 321.645,335.586 312.978,342.253 302.5,346.5C 296.246,342.582 290.579,337.915 285.5,332.5C 297.574,329.424 307.574,323.09 315.5,313.5 Z"/></g>
<g><path style="opacity:0.969" fill="#f0b128" d="M 139.5,344.5 C 146.609,350.436 153.609,356.603 160.5,363C 180.45,383.787 201.116,403.62 222.5,422.5C 217.733,429.714 212.733,436.714 207.5,443.5C 203.873,438.206 199.54,433.539 194.5,429.5C 198.034,424.275 201.701,419.108 205.5,414C 194.18,408.332 183.68,401.499 174,393.5C 171.49,396.539 168.99,399.539 166.5,402.5C 162.5,397.833 158.167,393.5 153.5,389.5C 155.193,385.628 157.526,382.128 160.5,379C 151.592,368.689 144.592,357.189 139.5,344.5 Z"/></g>
<g><path style="opacity:0.97" fill="#e88a40" d="M 349.5,347.5 C 354.562,351.559 358.895,356.226 362.5,361.5C 359.632,368.057 355.632,373.89 350.5,379C 362.544,394.931 374.21,411.098 385.5,427.5C 367.451,411.956 350.118,395.456 333.5,378C 331.922,376.906 330.255,376.072 328.5,375.5C 336.972,367.201 343.972,357.868 349.5,347.5 Z"/></g>
<g><path style="opacity:0.974" fill="#f2ba23" d="M 153.5,389.5 C 158.167,393.5 162.5,397.833 166.5,402.5C 160.155,411.205 153.821,419.871 147.5,428.5C 143.128,424.126 138.461,420.126 133.5,416.5C 139.447,406.927 146.114,397.927 153.5,389.5 Z"/></g>
<g><path style="opacity:0.97" fill="#e9913c" d="M 328.5,375.5 C 330.255,376.072 331.922,376.906 333.5,378C 350.118,395.456 367.451,411.956 385.5,427.5C 393.685,437.021 400.685,447.354 406.5,458.5C 404.873,466.153 400.206,468.986 392.5,467C 388.846,465.726 385.18,464.56 381.5,463.5C 381.631,462.761 381.464,462.094 381,461.5C 371.938,452.27 362.772,443.27 353.5,434.5C 358.68,436.06 363.846,437.726 369,439.5C 369.5,439.167 370,438.833 370.5,438.5C 359.744,423.322 348.744,408.322 337.5,393.5C 332.149,397.192 326.815,400.859 321.5,404.5C 317.167,399.833 312.833,395.167 308.5,390.5C 315.732,386.269 322.399,381.269 328.5,375.5 Z"/></g>
<g><path style="opacity:0.967" fill="#eb9a36" d="M 308.5,390.5 C 312.833,395.167 317.167,399.833 321.5,404.5C 316.395,407.892 311.062,411.059 305.5,414C 309.299,419.108 312.966,424.275 316.5,429.5C 315.078,429.291 313.745,428.791 312.5,428C 303.298,418.965 294.298,409.798 285.5,400.5C 293.552,397.972 301.219,394.639 308.5,390.5 Z"/></g>
<g><path style="opacity:0.984" fill="#eda132" d="M 285.5,400.5 C 294.298,409.798 303.298,418.965 312.5,428C 313.745,428.791 315.078,429.291 316.5,429.5C 322.324,437.804 328.157,446.138 334,454.5C 334.498,451.183 334.665,447.85 334.5,444.5C 335.309,446.292 335.809,448.292 336,450.5C 341.032,455.867 346.365,460.867 352,465.5C 352.383,464.944 352.883,464.611 353.5,464.5C 353.666,471.841 353.5,479.174 353,486.5C 350.499,493.665 345.665,495.832 338.5,493C 320.632,468.764 303.132,444.264 286,419.5C 274.434,422.839 262.601,424.173 250.5,423.5C 244.171,416.338 237.338,409.671 230,403.5C 229.536,402.906 229.369,402.239 229.5,401.5C 248.235,406.684 266.902,406.351 285.5,400.5 Z"/></g>
<g><path style="opacity:0.963" fill="#f4c31c" d="M 133.5,416.5 C 138.461,420.126 143.128,424.126 147.5,428.5C 145.192,431.815 142.859,435.149 140.5,438.5C 141,438.833 141.5,439.167 142,439.5C 145.431,438.189 148.931,437.189 152.5,436.5C 153.552,436.351 154.552,436.517 155.5,437C 166.029,447.863 176.863,458.363 188,468.5C 188.464,469.094 188.631,469.761 188.5,470.5C 183.545,478.235 178.211,485.735 172.5,493C 165.335,495.832 160.501,493.665 158,486.5C 157.5,475.839 157.333,465.172 157.5,454.5C 151.5,456.167 145.5,457.833 139.5,459.5C 132.193,452.528 124.86,445.528 117.5,438.5C 122.478,430.863 127.812,423.53 133.5,416.5 Z"/></g>
<g><path style="opacity:0.98" fill="#eb9837" d="M 353.5,434.5 C 362.772,443.27 371.938,452.27 381,461.5C 381.464,462.094 381.631,462.761 381.5,463.5C 372.305,460.102 362.972,457.102 353.5,454.5C 353.5,457.833 353.5,461.167 353.5,464.5C 352.883,464.611 352.383,464.944 352,465.5C 346.365,460.867 341.032,455.867 336,450.5C 335.809,448.292 335.309,446.292 334.5,444.5C 333.326,437.16 336.326,432.827 343.5,431.5C 346.98,432.105 350.314,433.105 353.5,434.5 Z"/></g>
<g><path style="opacity:0.972" fill="#f3bc21" d="M 194.5,429.5 C 199.54,433.539 203.873,438.206 207.5,443.5C 201.523,452.8 195.19,461.8 188.5,470.5C 188.631,469.761 188.464,469.094 188,468.5C 176.863,458.363 166.029,447.863 155.5,437C 154.552,436.517 153.552,436.351 152.5,436.5C 171.768,426.563 179.935,432.563 177,454.5C 182.843,446.138 188.676,437.804 194.5,429.5 Z"/></g>
<g><path style="opacity:0.974" fill="#f6cb17" d="M 117.5,438.5 C 124.86,445.528 132.193,452.528 139.5,459.5C 132.712,462.265 125.712,464.765 118.5,467C 107.635,468.473 103.468,463.973 106,453.5C 109.697,448.315 113.53,443.315 117.5,438.5 Z"/></g>
</svg>
